<svg id="Calque_1" data-name="Calque 1" xmlns="http://www.w3.org/2000/svg" viewBox="0 0 484.97 159.88"><defs><style>.cls-1{fill:#f08125;}.cls-2,.cls-4,.cls-5{fill:#fff;}.cls-2,.cls-3{opacity:0.7;}.cls-5{font-size:32.85px;font-family:NSimSun;letter-spacing:0.14em;}</style></defs><g id="_2" data-name="2"><path class="cls-1" d="M160.78,104.17a41.87,41.87,0,0,1,10.27-2.11,41.49,41.49,0,1,1-36.16,54.71,40.56,40.56,0,0,1-2.07-10.26,31.31,31.31,0,0,0,8.47-1.48l.94.63,1,.63a31.69,31.69,0,0,0,2,8.37,31.13,31.13,0,1,0,28-42.31,28.52,28.52,0,0,0-4.52.48h0l-1.14-.82-.58-.4c-.49-.34-1-.67-1.49-1s-1-.66-1.5-1c-.19-.13-.39-.25-.59-.37-.4-.26-.8-.5-1.2-.74A30.43,30.43,0,0,0,160.78,104.17Z" transform="translate(-61.73 -72.6)"/><path class="cls-1" d="M68.61,135.4a41.48,41.48,0,0,1,76,19.82,28.77,28.77,0,0,0-4.53.48l-1.15-.82-.57-.39c-.49-.35-1-.68-1.49-1s-1-.66-1.5-1l-.59-.37-1.2-.73h0a31.76,31.76,0,0,0-1.33-4.36,31.14,31.14,0,1,0-19.5,40.86l1,.63q.48.33,1,.63a30.92,30.92,0,0,0,2,8.37,40.8,40.8,0,0,1-10.26,2.11A41.48,41.48,0,0,1,68.61,135.4Z" transform="translate(-61.73 -72.6)"/><path class="cls-1" d="M92.14,128.51a41.54,41.54,0,1,1,42.18,28.2,31.71,31.71,0,0,0-1.43-8.48c.22-.31.43-.62.64-.94l.63-1a31.12,31.12,0,1,0-33.78-30.14,29.85,29.85,0,0,0,.46,4.53h0l-.82,1.14-.4.57c-.35.49-.69,1-1,1.48s-.66,1-1,1.5c-.13.19-.26.39-.38.59-.26.4-.5.8-.75,1.2A30.31,30.31,0,0,0,92.14,128.51Z" transform="translate(-61.73 -72.6)"/><path class="cls-1" d="M122.85,220.85A41.48,41.48,0,0,1,143.09,145a30,30,0,0,0,.46,4.53l-.82,1.14c-.14.19-.27.38-.4.58-.35.49-.69,1-1,1.48s-.66,1-1,1.49l-.38.59c-.25.4-.5.8-.74,1.2h0a29.13,29.13,0,0,0-4.36,1.31A31.11,31.11,0,1,0,177,185.51,31.58,31.58,0,0,0,175.6,177l.64-.95.63-1a30.93,30.93,0,0,0,8.38-1.92,41.47,41.47,0,0,1-4.84,36.23A41.48,41.48,0,0,1,122.85,220.85Z" transform="translate(-61.73 -72.6)"/><g id="Atcho"><path class="cls-2" d="M321.37,110.21v74.71h-9.55v-72.8a26.81,26.81,0,0,0-53.61,0v72.8h-9.56V110.21a36.36,36.36,0,0,1,72.72,0Z" transform="translate(-61.73 -72.6)"/><path class="cls-2" d="M335.56,111.33a80,80,0,0,0-14.19,2,68.72,68.72,0,0,0-9.55,2.74A82.68,82.68,0,0,0,258.21,180a48.27,48.27,0,0,0-.68,4.95h-8.36a81,81,0,0,1,9-29.57,82.72,82.72,0,0,1,53.61-41.78,68.64,68.64,0,0,1,9.55-1.72,75.52,75.52,0,0,1,10-.63C332.79,111.22,334.16,111.25,335.56,111.33Z" transform="translate(-61.73 -72.6)"/><g class="cls-3"><path class="cls-4" d="M440.44,163.46a56.91,56.91,0,1,1-1.26-69.57,44.52,44.52,0,0,0-4.73,4c-.63,0-1.29,0-1.95,0-.3,0-.63,0-.95,0-.83,0-1.65,0-2.47,0l-.85,0a46.73,46.73,0,1,0-5.14,68,47.15,47.15,0,0,0,8.18-8.52,29.38,29.38,0,0,1-2.46-1.86h1.34c.55,0,1.07,0,1.59,0A42.33,42.33,0,0,0,440.44,163.46Z" transform="translate(-61.73 -72.6)"/><path class="cls-4" d="M428.81,155.57h-.22a42,42,0,0,1-8.41,8.27,42.68,42.68,0,1,1-26.14-77,42.15,42.15,0,0,1,24.83,7.42,39,39,0,0,1,4.87,3.89h0c.63-.06,1.26-.08,1.92-.11.3,0,.63,0,.95,0,.52,0,1.05,0,1.59,0,.71.74,1.37,1.5,2,2.3a33.38,33.38,0,0,0-3.91,3.31h-4.38c-.69,0-1.37,0-2,0-.25,0-.52,0-.79.06-.52,0-1,0-1.57.08l0,0a34.17,34.17,0,0,0-4-3.17,35.09,35.09,0,1,0,8,50.37h1.29l1.29,0A33.39,33.39,0,0,0,428.81,155.57Z" transform="translate(-61.73 -72.6)"/></g><g class="cls-3"><path class="cls-4" d="M444.18,163.47a56.88,56.88,0,1,0,1.26-69.57,44.63,44.63,0,0,1,4.74,4c.63,0,1.28,0,1.94,0,.3,0,.63,0,1,0,.82,0,1.64,0,2.46,0l.85,0A45.94,45.94,0,0,1,462.91,92,46.76,46.76,0,1,1,461.54,166a47.48,47.48,0,0,1-8.19-8.51c.85-.58,1.67-1.21,2.47-1.87h-1.34c-.55,0-1.07,0-1.59-.05A42.13,42.13,0,0,1,444.18,163.47Z" transform="translate(-61.73 -72.6)"/><path class="cls-4" d="M455.82,155.58H456a41.92,41.92,0,0,0,8.4,8.27,42.68,42.68,0,1,0,1.32-69.57,40,40,0,0,0-4.88,3.89h0c-.63,0-1.25-.08-1.91-.11-.3,0-.63,0-1,0-.52,0-1,0-1.59,0-.71.74-1.37,1.51-2,2.3a34.48,34.48,0,0,1,3.92,3.31h4.38c.68,0,1.37,0,2,.06.25,0,.53,0,.8,0,.52,0,1,0,1.56.08l0,0a35.08,35.08,0,1,1,2.93,54A35.65,35.65,0,0,1,463.1,151h-1.29c-.44,0-.85,0-1.28,0A34.49,34.49,0,0,1,455.82,155.58Z" transform="translate(-61.73 -72.6)"/></g></g><text class="cls-5" transform="translate(187.44 155.26)">Notre identité</text></g></svg>